<?xml version="1.0" encoding="UTF-8" standalone="no"?>
<!-- Created with Inkscape (http://www.inkscape.org/) -->

<svg
   version="1.1"
   id="svg2"
   width="566.93335"
   height="566.93335"
   viewBox="0 0 566.93335 566.93335"
   sodipodi:docname="52299.eps"
   xmlns:inkscape="http://www.inkscape.org/namespaces/inkscape"
   xmlns:sodipodi="http://sodipodi.sourceforge.net/DTD/sodipodi-0.dtd"
   xmlns="http://www.w3.org/2000/svg"
   xmlns:svg="http://www.w3.org/2000/svg">
  <defs
     id="defs6" />
  <sodipodi:namedview
     id="namedview4"
     pagecolor="#ffffff"
     bordercolor="#000000"
     borderopacity="0.25"
     inkscape:showpageshadow="2"
     inkscape:pageopacity="0.0"
     inkscape:pagecheckerboard="0"
     inkscape:deskcolor="#d1d1d1" />
  <g
     id="g8"
     inkscape:groupmode="layer"
     inkscape:label="ink_ext_XXXXXX"
     transform="matrix(1.3333333,0,0,-1.3333333,0,566.93333)">
    <g
       id="g10"
       transform="scale(0.1)">
      <path
         d="M 4251.97,0 H 0 V 4251.97 H 4251.97 V 0"
         style="fill:#f4f4f4;fill-opacity:1;fill-rule:nonzero;stroke:none"
         id="path12" />
      <path
         d="m 3787,841.789 c 0,-228.168 -743.65,-413.148 -1661.01,-413.148 -917.35,0 -1661.017,184.98 -1661.017,413.148 0,228.191 743.667,413.181 1661.017,413.181 917.36,0 1661.01,-184.99 1661.01,-413.181"
         style="fill:#d6a734;fill-opacity:1;fill-rule:nonzero;stroke:none"
         id="path14" />
      <path
         d="m 3648,876.359 c 0,-209.078 -681.43,-378.578 -1522.01,-378.578 -840.59,0 -1522.013,169.5 -1522.013,378.578 0,209.111 681.423,378.611 1522.013,378.611 840.58,0 1522.01,-169.5 1522.01,-378.611"
         style="fill:#c59a30;fill-opacity:1;fill-rule:nonzero;stroke:none"
         id="path16" />
      <path
         d="m 3534.29,904.668 c 0,-193.477 -630.53,-350.316 -1408.3,-350.316 -777.8,0 -1408.302,156.839 -1408.302,350.316 0,193.462 630.502,350.302 1408.302,350.302 777.77,0 1408.3,-156.84 1408.3,-350.302"
         style="fill:#c48e30;fill-opacity:1;fill-rule:nonzero;stroke:none"
         id="path18" />
      <path
         d="m 3429.33,930.77 c 0,-179.051 -583.54,-324.2 -1303.34,-324.2 -719.81,0 -1303.345,145.149 -1303.345,324.2 0,179.05 583.535,324.2 1303.345,324.2 719.8,0 1303.34,-145.15 1303.34,-324.2"
         style="fill:#b2802b;fill-opacity:1;fill-rule:nonzero;stroke:none"
         id="path20" />
      <path
         d="m 2149.31,1533.63 c 0,-417.87 332.18,-756.618 741.91,-756.618 409.78,0 741.95,338.748 741.95,756.618 0,417.85 -332.17,756.57 -741.95,756.57 -409.73,0 -741.91,-338.72 -741.91,-756.57"
         style="fill:#e9e9e9;fill-opacity:1;fill-rule:nonzero;stroke:none"
         id="path22" />
      <path
         d="m 2195.88,1626.17 c 0,-331.31 266.34,-599.86 594.88,-599.86 328.55,0 594.85,268.55 594.85,599.86 0,331.33 -266.3,599.9 -594.85,599.9 -328.54,0 -594.88,-268.57 -594.88,-599.9"
         style="fill:#ffffff;fill-opacity:1;fill-rule:nonzero;stroke:none"
         id="path24" />
      <path
         d="m 2574.45,1690.02 c 0,0 -155.72,295.8 17.08,535.88 0,0 192.49,107.63 466.47,45.11 0,0 -445.67,-234.22 -483.55,-580.99"
         style="fill:#f9a72b;fill-opacity:1;fill-rule:nonzero;stroke:none"
         id="path26" />
      <path
         d="m 2577.73,1713.57 c -34.68,355.72 196.71,513.26 295,576.83 55.54,0.98 117.51,-4.13 184.37,-19.39 0,0 -428.24,-237.56 -479.37,-557.44"
         style="fill:#fab94a;fill-opacity:1;fill-rule:nonzero;stroke:none"
         id="path28" />
      <path
         d="m 2591.53,2225.9 c 0,0 192.49,107.63 466.47,45.11 0,0 -10.35,-5.45 -27.99,-15.88 -245.59,38.72 -413.7,-55.27 -413.7,-55.27 -129.82,-180.31 -74.26,-392.05 -38.58,-486.29 -1.28,-7.79 -2.42,-15.62 -3.28,-23.55 0,0 -155.72,295.8 17.08,535.88"
         style="fill:#f57b2e;fill-opacity:1;fill-rule:nonzero;stroke:none"
         id="path30" />
      <path
         d="m 2574.45,1690.02 c 0,0 329,519.35 874.49,342.56 0,0 133.8,-145.04 168.33,-342.56 0,0 -300.41,249.14 -1042.82,0"
         style="fill:#ed3947;fill-opacity:1;fill-rule:nonzero;stroke:none"
         id="path32" />
      <path
         d="m 2574.45,1690.82 c 742.41,249.12 1042.82,0 1042.82,0 -15.5,88.57 -50.97,166.6 -85.35,225.72 0,0 -403.8,186.09 -957.47,-225.72"
         style="fill:#e8575d;fill-opacity:1;fill-rule:nonzero;stroke:none"
         id="path34" />
      <path
         d="m 3448.94,1996.77 c -442.93,143.56 -743.12,-171.85 -840.34,-295.52 -11.29,-3.64 -22.67,-7.35 -34.15,-11.23 0,0 329,519.35 874.49,342.56 0,0 133.8,-145.04 168.33,-342.56 0,0 -3.06,2.52 -9.17,6.74 -44.31,175.41 -159.16,300.01 -159.16,300.01"
         style="fill:#eb2846;fill-opacity:1;fill-rule:nonzero;stroke:none"
         id="path36" />
      <path
         d="m 2574.45,1690.02 c 0,0 761.1,41.38 986.37,-482.64 0,0 -75.42,-212.911 -338.33,-350.9 0,0 -169.22,667.79 -648.04,833.54"
         style="fill:#3bbec5;fill-opacity:1;fill-rule:nonzero;stroke:none"
         id="path38" />
      <path
         d="m 2574.45,1690.43 c 478.82,-165.78 648.04,-833.559 648.04,-833.559 68.03,35.688 123.49,76.41 168.36,117.168 0,0 -199.28,623.831 -816.4,716.391"
         style="fill:#70d0e0;fill-opacity:1;fill-rule:nonzero;stroke:none"
         id="path40" />
      <path
         d="m 3526.65,1207.38 c -188.04,437.34 -749.2,480.86 -929.73,483.3 127.51,1.91 761.62,-12.85 963.9,-483.3 0,0 -75.42,-212.911 -338.33,-350.9 0,0 -1.48,5.782 -4.49,16.372 238.94,137.788 308.65,334.528 308.65,334.528"
         style="fill:#2b8990;fill-opacity:1;fill-rule:nonzero;stroke:none"
         id="path42" />
      <path
         d="m 2574.45,1675.19 c 0,0 -200.71,-556.15 300.5,-897.971 0,0 -366.03,-9.641 -583.26,310.751 0,0 -168.73,469.66 282.76,587.22"
         style="fill:#80cc28;fill-opacity:1;fill-rule:nonzero;stroke:none"
         id="path44" />
      <path
         d="m 2573.94,847.77 c 159.34,-74.301 301.01,-70.551 301.01,-70.551 -501.21,341.821 -300.5,897.971 -300.5,897.971 0,0 -266.57,-332.05 -0.51,-827.42"
         style="fill:#b2db18;fill-opacity:1;fill-rule:nonzero;stroke:none"
         id="path46" />
      <path
         d="m 2574.45,1675.19 c 0,0 -1.06,-2.93 -2.76,-8.34 -415.22,-129.7 -253.97,-578.88 -253.97,-578.88 181.77,-268.15 467.71,-305.118 556.2,-310.021 l 1.03,-0.73 c 0,0 -366.03,-9.641 -583.26,310.751 0,0 -168.73,469.66 282.76,587.22"
         style="fill:#5b921b;fill-opacity:1;fill-rule:nonzero;stroke:none"
         id="path48" />
      <path
         d="m 2574.45,1675.19 c 0,0 -91.82,189.69 -318.29,249.81 0,0 -85.35,-102.93 -104.63,-332.58 0,0 159.82,248.73 422.92,82.77"
         style="fill:#3bbec5;fill-opacity:1;fill-rule:nonzero;stroke:none"
         id="path50" />
      <path
         d="m 2460.97,1690.02 c 0,-62.66 50.79,-113.46 113.48,-113.46 62.68,0 113.48,50.8 113.48,113.46 0,62.69 -50.8,113.49 -113.48,113.49 -62.69,0 -113.48,-50.8 -113.48,-113.49"
         style="fill:#d3d2d2;fill-opacity:1;fill-rule:nonzero;stroke:none"
         id="path52" />
      <path
         d="m 2487.5,1690.02 c 0,-47.91 38.83,-86.74 86.72,-86.74 47.92,0 86.75,38.83 86.75,86.74 0,47.91 -38.83,86.75 -86.75,86.75 -47.89,0 -86.72,-38.84 -86.72,-86.75"
         style="fill:#ffffff;fill-opacity:1;fill-rule:nonzero;stroke:none"
         id="path54" />
      <path
         d="m 2041.24,1087.02 208.49,-40.37 c 0,0 103.82,1022.15 562.01,1701.4 0,0 -474.04,-130.59 -770.5,-1661.03"
         style="fill:#803131;fill-opacity:1;fill-rule:nonzero;stroke:none"
         id="path56" />
      <path
         d="m 2811.74,2748.05 c 0,0 -474.04,-130.59 -770.5,-1661.03 l 74.6,-14.45 c 190.98,985.91 455.64,1390.88 619.8,1554.26 24.2,41.37 49.56,81.89 76.1,121.22"
         style="fill:#632524;fill-opacity:1;fill-rule:nonzero;stroke:none"
         id="path58" />
      <path
         d="m 2905.8,2320.05 114.79,41.7 -37.13,-107.6 c 14.96,-23.89 53.55,-52.44 53.55,-52.44 l 63.5,105.64 -30.71,-137.17 27.44,-21.23 90.85,76.96 -26.16,-125.34 c 19.91,-17.52 77.18,-48.43 77.18,-48.43 l 60.64,102.26 -10.63,-124.88 30.92,-11.25 82.13,44.04 22.38,-70.39 93.03,-20.35 0.21,-0.23 -0.02,0.21 0.18,-0.08 -0.23,0.29 -26.38,147.29 -90.88,16.23 78.17,35.61 -18.08,56.17 -139,18.42 110.9,26.51 c 0,0 -33.37,69.58 -50.12,90.15 l -160.8,23.08 134.97,13.28 -20.21,28.25 -167.68,32.38 130.18,20 c 0,0 -54.47,66.68 -77.75,82.54 l -109.16,-23.28 80.91,57.96 -38.56,19.13 -113.68,-28.54 83.32,59.62 -53.17,20.88 -149.32,-41.84 121.35,54.81 -61.68,26.53 c 0,0 -24,-9.04 -110.99,-40.83 l 79.28,56.75 -42.66,14.18 -118.46,5.55 -13.42,14.17 0.12,-13.56 -13.55,0.63 13.66,-13.96 1.03,-118.57 12.54,-43.19 59.74,77.08 c -35.08,-85.71 -45.04,-109.36 -45.04,-109.36 l 24.17,-62.66 59.38,119.18 -47.49,-147.6 18.82,-53.9 62.77,80.97 -32.82,-112.54 17.67,-39.23"
         style="fill:#1d483f;fill-opacity:1;fill-rule:nonzero;stroke:none"
         id="path60" />
      <path
         d="m 3379.62,2121.94 90.89,-16.21 23.1,-128.93 23.97,-5.21 0.21,-0.25 -0.02,0.21 0.18,-0.08 -0.23,0.29 -26.38,147.29 -84.88,15.16 -26.84,-12.27"
         style="fill:#317b6c;fill-opacity:1;fill-rule:nonzero;stroke:none"
         id="path62" />
      <path
         d="m 2900.57,2612.31 149.29,41.83 53.18,-20.87 -83.31,-59.64 113.67,28.53 38.56,-19.11 -80.92,-57.95 109.16,23.25 c 17.98,-12.25 54.57,-54.85 70.31,-73.58 l 28.28,4.36 c 0,0 -54.47,66.68 -77.75,82.54 l -109.16,-23.28 80.91,57.96 -38.56,19.13 -113.68,-28.54 83.32,59.62 -53.17,20.88 -126.48,-35.41 -43.65,-19.72"
         style="fill:#317b6c;fill-opacity:1;fill-rule:nonzero;stroke:none"
         id="path64" />
      <path
         d="m 2775.06,2728.89 110.78,-5.18 42.68,-14.15 -79.29,-56.77 c 86.99,31.81 111.02,40.85 111.02,40.85 l 57.2,-24.66 25.28,11.43 -61.64,26.51 c 0,0 -24.04,-9.02 -111.03,-40.81 l 79.28,56.75 -42.64,14.18 -118.48,5.55 -13.42,14.17 0.12,-13.56 -13.55,0.63 13.66,-13.96 0.03,-0.98"
         style="fill:#317b6c;fill-opacity:1;fill-rule:nonzero;stroke:none"
         id="path66" />
      <path
         d="m 3147.79,2445.82 167.68,-32.4 12.66,-17.73 28.37,2.81 -20.21,28.25 -138.54,26.73 -49.96,-7.66"
         style="fill:#317b6c;fill-opacity:1;fill-rule:nonzero;stroke:none"
         id="path68" />
      <path
         d="m 3300.75,2232.14 138.96,-18.4 16.98,-52.83 21.94,9.98 -18.08,56.17 -116.58,15.45 -43.22,-10.37"
         style="fill:#317b6c;fill-opacity:1;fill-rule:nonzero;stroke:none"
         id="path70" />
      <path
         d="m 3200.68,2371.9 160.84,-23.07 c 13.38,-16.44 37.39,-64.2 46.45,-82.71 l 24.48,5.87 c 0,0 -33.37,69.58 -50.12,90.15 l -114.23,16.4 -67.42,-6.64"
         style="fill:#317b6c;fill-opacity:1;fill-rule:nonzero;stroke:none"
         id="path72" />
      <path
         d="m 2928.15,2628.7 1.62,4.96 -2.73,-5.46 z"
         style="fill:#193d35;fill-opacity:1;fill-rule:nonzero;stroke:none"
         id="path74" />
      <path
         d="m 2888.22,2679.13 c 1,2.41 1.99,4.85 3.03,7.38 l -9.06,-11.74 6.03,4.36"
         style="fill:#193d35;fill-opacity:1;fill-rule:nonzero;stroke:none"
         id="path76" />
      <path
         d="m 3204.86,2141.88 26.14,125.31 -90.84,-76.95 -27.43,21.27 30.69,137.13 -53.56,-89.12 -20.01,-89.28 27.45,-21.27 90.83,77.01 -26.14,-125.35 c 19.9,-17.52 77.17,-48.44 77.17,-48.44 l 29.04,48.95 c -18.25,10.31 -49.63,28.69 -63.34,40.74"
         style="fill:#193d35;fill-opacity:1;fill-rule:nonzero;stroke:none"
         id="path78" />
      <path
         d="m 3467.46,2033.23 -22.37,70.37 -82.14,-44.02 -30.88,11.25 10.59,124.88 -45.93,-77.46 -7.53,-88.69 30.89,-11.27 82.14,44.04 22.36,-70.35 93.03,-20.35 0.24,-0.22 -0.07,0.18 0.26,-0.06 -0.26,0.25 -9.39,52.52 -40.94,8.93"
         style="fill:#193d35;fill-opacity:1;fill-rule:nonzero;stroke:none"
         id="path80" />
      <path
         d="m 2882.29,2486.06 45.48,141.37 -1.31,-0.35 -56.08,-112.58 -4.64,12.11 -26.33,-81.81 18.86,-53.91 39.46,50.93 -15.44,44.24"
         style="fill:#193d35;fill-opacity:1;fill-rule:nonzero;stroke:none"
         id="path82" />
      <path
         d="m 2846.2,2577.15 c 0,0 8.82,20.87 38.98,94.52 -2.47,-0.92 -5.02,-1.84 -7.58,-2.78 l -41.44,-53.43 c -25.2,-61.55 -32.81,-79.58 -32.81,-79.58 l 24.19,-62.65 33.11,66.5 -14.45,37.42"
         style="fill:#193d35;fill-opacity:1;fill-rule:nonzero;stroke:none"
         id="path84" />
      <path
         d="m 3020.63,2361.8 -37.13,-107.59 c 14.96,-23.89 53.56,-52.45 53.56,-52.45 l 30.64,50.92 c -12.62,10.43 -31.79,27.54 -41.31,42.77 l 37.12,107.62 -114.8,-41.73 -17.67,39.25 32.82,112.56 -49.43,-63.8 -26.27,-90.02 17.68,-39.24 114.79,41.71"
         style="fill:#193d35;fill-opacity:1;fill-rule:nonzero;stroke:none"
         id="path86" />
      <path
         d="m 2818.98,2652.61 -0.76,88.61 -29.94,1.4 -13.44,14.2 0.14,-13.57 -13.55,0.64 13.67,-13.98 1.03,-118.56 12.54,-43.19 39.88,51.5 -9.57,32.95"
         style="fill:#193d35;fill-opacity:1;fill-rule:nonzero;stroke:none"
         id="path88" />
      <path
         d="m 3287.29,2591.45 28.37,142.31 86.43,-104.01 c 33.47,0.44 86.27,22.04 86.27,22.04 l -68.16,129.56 120.37,-115.67 38.49,14.78 -22.17,139.65 111.15,-103.76 c 30.03,9.4 96.73,48.48 96.73,48.48 l -66.48,124.59 120.28,-87.71 30.48,24.44 5.91,110.53 85.2,-20.65 78.02,81.93 0.39,0.1 -0.22,0.09 0.18,0.19 -0.42,-0.1 -165.84,63.96 -72.48,-82.29 11.99,101.35 -68.17,16.24 -104.31,-129.76 41.35,128.91 c 0,0 -91.22,9.03 -122.38,4.69 l -122.58,-149.07 69.7,145.23 -41.09,-3.12 -136.27,-150.28 59.92,144.48 c 0,0 -101.29,-14.2 -131.73,-28.11 l -43.64,-125.14 -8.97,117.86 -43.2,-27.32 -41.09,-133.07 -9.22,121.36 -53.96,-41.14 -49.53,-177.35 19.15,156.95 -64.95,-46.27 c 0,0 -5.61,-29.94 -26.94,-137.87 l -8.77,115.49 -40.69,-34.61 -78.6,-116.84 -22.7,-4.92 13.81,-8.26 -8.96,-13.37 22.6,5.32 121.05,-72.04 51.57,-13.88 -41.46,108.15 c 65.45,-88.43 83.31,-113.12 83.31,-113.12 l 78.51,-14.05 -84.43,133.71 120.6,-139.17 66.38,-14.13 -43.57,113.68 94.04,-102.72 50.73,-6.27"
         style="fill:#1d483f;fill-opacity:1;fill-rule:nonzero;stroke:none"
         id="path90" />
      <path
         d="m 3780.43,2950.55 72.54,82.29 145.12,-55.99 20.09,21.11 0.41,0.09 -0.24,0.1 0.18,0.19 -0.42,-0.1 -165.84,63.96 -67.69,-76.83 -4.15,-34.82"
         style="fill:#317b6c;fill-opacity:1;fill-rule:nonzero;stroke:none"
         id="path92" />
      <path
         d="m 2987.3,2766.29 49.54,177.36 53.96,41.16 9.22,-121.35 41.09,133.03 43.19,27.35 8.94,-117.88 43.67,125.17 c 23.52,10.74 89.3,21.65 118.01,26.05 l 13.03,31.4 c 0,0 -101.29,-14.2 -131.73,-28.11 l -43.64,-125.14 -8.97,117.86 -43.2,-27.32 -41.09,-133.07 -9.22,121.36 -53.96,-41.14 -41.94,-150.25 -6.9,-56.48"
         style="fill:#317b6c;fill-opacity:1;fill-rule:nonzero;stroke:none"
         id="path94" />
      <path
         d="m 2791.54,2710.67 73.57,109.32 40.68,34.61 8.76,-115.49 c 21.33,107.95 26.95,137.89 26.95,137.89 l 60.3,42.93 3.96,32.69 -64.95,-46.27 c 0,0 -5.6,-29.96 -26.94,-137.87 l -8.77,115.49 -40.69,-34.61 -78.6,-116.84 -22.7,-4.92 13.86,-8.24 -9.01,-13.39 22.6,5.32 0.98,-0.62"
         style="fill:#317b6c;fill-opacity:1;fill-rule:nonzero;stroke:none"
         id="path96" />
      <path
         d="m 3308.75,2914.71 136.22,150.33 25.8,1.96 14.62,30.5 -41.09,-3.12 -112.55,-124.18 -23,-55.49"
         style="fill:#317b6c;fill-opacity:1;fill-rule:nonzero;stroke:none"
         id="path98" />
      <path
         d="m 3619.96,2938.38 104.33,129.77 64.13,-15.31 3.36,28.42 -68.17,16.24 -87.5,-108.85 -16.15,-50.27"
         style="fill:#317b6c;fill-opacity:1;fill-rule:nonzero;stroke:none"
         id="path100" />
      <path
         d="m 3416.39,2922.9 122.54,149.11 c 24.94,3.45 88.24,-1.62 112.59,-3.8 l 9.13,28.44 c 0,0 -91.22,9.03 -122.38,4.69 l -87.07,-105.92 -34.81,-72.52"
         style="fill:#317b6c;fill-opacity:1;fill-rule:nonzero;stroke:none"
         id="path102" />
      <path
         d="m 2987.67,2804.42 -4.07,4.69 3.86,-6.16 z"
         style="fill:#193d35;fill-opacity:1;fill-rule:nonzero;stroke:none"
         id="path104" />
      <path
         d="m 2911.84,2794.94 c -1.84,2.51 -3.69,5.04 -5.6,7.61 l 6.28,-16.44 -0.68,8.83"
         style="fill:#193d35;fill-opacity:1;fill-rule:nonzero;stroke:none"
         id="path106" />
      <path
         d="m 3652.52,2785.39 -111.15,103.76 22.17,-139.67 -38.5,-14.75 -120.33,115.68 57.52,-109.33 78.3,-75.29 38.49,14.75 -22.16,139.66 111.15,-103.76 c 30.02,9.41 96.74,48.52 96.74,48.52 l -31.82,59.62 c -21.73,-12.18 -59.73,-32.72 -80.41,-39.19"
         style="fill:#193d35;fill-opacity:1;fill-rule:nonzero;stroke:none"
         id="path108" />
      <path
         d="m 3924.69,2985.09 -85.26,20.62 -5.89,-110.51 -30.46,-24.47 -120.29,87.74 50.35,-94.38 85.4,-62.3 30.48,24.45 5.9,110.52 85.26,-20.62 77.96,81.91 0.41,0.12 -0.23,0.07 0.19,0.17 -0.4,-0.09 -59.14,22.81 -34.28,-36.04"
         style="fill:#193d35;fill-opacity:1;fill-rule:nonzero;stroke:none"
         id="path110" />
      <path
         d="m 3104.23,2669.94 -115.56,133.29 -0.38,-1.54 79.74,-126.29 -15.2,2.7 66.86,-77.13 66.37,-14.09 -27.41,71.46 -54.42,11.6"
         style="fill:#193d35;fill-opacity:1;fill-rule:nonzero;stroke:none"
         id="path112" />
      <path
         d="m 2989.54,2689.41 c 0,0 -15.83,21.83 -72,97.83 -0.59,-3.05 -1.23,-6.2 -1.86,-9.38 l 28.75,-75 c 46.98,-63.58 60.57,-82.37 60.57,-82.37 l 78.52,-14.06 -47.1,74.61 -46.88,8.37"
         style="fill:#193d35;fill-opacity:1;fill-rule:nonzero;stroke:none"
         id="path114" />
      <path
         d="m 3315.69,2733.84 86.39,-103.99 c 33.45,0.43 86.24,22.03 86.24,22.03 l -32.86,62.48 c -18.35,-6.38 -47.51,-15.27 -68.9,-15.56 l -86.39,104.01 -28.37,-142.3 -50.74,6.25 -94.06,102.69 34.35,-89.52 75.19,-82.13 50.75,-6.25 28.4,142.29"
         style="fill:#193d35;fill-opacity:1;fill-rule:nonzero;stroke:none"
         id="path116" />
      <path
         d="m 2896.11,2708.29 -90.48,53.83 -19.87,-29.52 -22.68,-4.9 13.83,-8.23 -9,-13.4 22.62,5.28 121.08,-72.01 51.55,-13.86 -27.67,72.22 -39.38,10.59"
         style="fill:#193d35;fill-opacity:1;fill-rule:nonzero;stroke:none"
         id="path118" />
      <path
         d="m 2360.79,3006.96 87.18,115.98 -135.11,-4.89 c -21.97,25.25 -41.06,79.02 -41.06,79.02 l 142.01,35.53 -166.45,12.65 -14.65,38.54 118.92,76.53 -151.43,13.71 c -13.01,28.67 -28.32,104.45 -28.32,104.45 l 137.19,33.46 -145.57,31.21 -2.07,39.05 78.47,78.02 -72.19,49.82 9.07,112.74 -0.17,0.36 0.22,-0.1 0.01,0.23 0.23,-0.35 158.19,-81.02 -13.03,-108.9 67.56,76.46 57.53,-39.98 -27.22,-164.24 68.55,116.77 c 0,0 67.53,-62.02 85.07,-88.15 l -29.48,-190.75 61.83,148.77 25.06,-32.71 -21.25,-201.77 67.82,140.96 c 0,0 56.91,-84.98 66.81,-116.93 l -64.22,-115.95 93.86,71.87 8.39,-50.44 -71.79,-119.3 96.59,74.01 5.3,-67.65 -99.22,-155.13 104.24,118.91 8.8,-79.3 c 0,0 -18.59,-24.15 -84.83,-111.97 l 91.94,70.42 1.31,-53.38 -34.72,-136.49 11.5,-20.19 -15.4,4.85 -3.98,-15.65 -11.13,20.38 -134.37,42.26 -44.69,29.2 108.24,41.17 c -109.53,-10.16 -139.86,-13.28 -139.86,-13.28 l -62.81,49.18 155.97,26.13 -184.14,-2.79 -54.74,40.08 113.75,43.26 -139.24,1.64 -38.47,33.69"
         style="fill:#1d483f;fill-opacity:1;fill-rule:nonzero;stroke:none"
         id="path120" />
      <path
         d="m 2299.86,3613.95 13.05,108.89 -138.44,70.88 2.31,29.06 -0.17,0.36 0.22,-0.1 0.01,0.23 0.23,-0.35 158.19,-81.02 -12.19,-101.68 -23.21,-26.27"
         style="fill:#317b6c;fill-opacity:1;fill-rule:nonzero;stroke:none"
         id="path122" />
      <path
         d="m 2691.07,2899.79 99.23,155.14 -5.26,67.64 -96.64,-74 71.81,119.28 -8.39,50.44 -93.87,-71.88 64.26,115.96 c -7.67,24.69 -43.4,81.04 -59.24,105.37 l 14.73,30.62 c 0,0 56.91,-84.98 66.81,-116.93 l -64.22,-115.95 93.86,71.87 8.39,-50.44 -71.81,-119.3 96.61,74.01 5.3,-67.63 -84.04,-131.42 -37.53,-42.78"
         style="fill:#317b6c;fill-opacity:1;fill-rule:nonzero;stroke:none"
         id="path124" />
      <path
         d="m 2780.04,2716.76 32.5,127.72 -1.33,53.39 -91.93,-70.42 c 66.27,87.83 84.86,111.95 84.86,111.95 l -8.18,73.58 21.7,24.77 8.8,-79.3 c 0,0 -18.59,-24.15 -84.83,-111.97 l 91.96,70.44 1.29,-53.4 -34.72,-136.49 11.5,-20.19 -15.4,4.85 -3.98,-15.65 -11.13,20.38 -1.11,0.34"
         style="fill:#317b6c;fill-opacity:1;fill-rule:nonzero;stroke:none"
         id="path126" />
      <path
         d="m 2587.52,3238.37 21.3,201.72 -15.72,20.52 12.97,31.27 25.06,-32.71 -17.56,-166.7 -26.05,-54.1"
         style="fill:#317b6c;fill-opacity:1;fill-rule:nonzero;stroke:none"
         id="path128" />
      <path
         d="m 2397.75,3486.17 27.25,164.25 -54.16,37.62 18.95,21.42 57.53,-39.98 -22.83,-137.77 -26.74,-45.54"
         style="fill:#317b6c;fill-opacity:1;fill-rule:nonzero;stroke:none"
         id="path130" />
      <path
         d="m 2521.9,3324.09 29.45,190.71 c -13.99,20.89 -59.96,64.71 -77.8,81.44 l 15.1,25.77 c 0,0 67.53,-62.02 85.07,-88.15 l -20.94,-135.52 -30.88,-74.25"
         style="fill:#317b6c;fill-opacity:1;fill-rule:nonzero;stroke:none"
         id="path132" />
      <path
         d="m 2719.23,2925.48 6.2,0.07 -7.16,-1.19 z"
         style="fill:#193d35;fill-opacity:1;fill-rule:nonzero;stroke:none"
         id="path134" />
      <path
         d="m 2762.71,2862.62 c 3.09,0.3 6.23,0.59 9.45,0.86 l -16.48,-6.25 7.03,5.39"
         style="fill:#193d35;fill-opacity:1;fill-rule:nonzero;stroke:none"
         id="path136" />
      <path
         d="m 2261.97,3408.5 151.45,-13.73 -118.91,-76.56 14.66,-38.53 166.45,-12.64 -119.84,-29.99 -108.32,8.23 -14.69,38.56 118.93,76.53 -151.45,13.72 c -12.98,28.65 -28.26,104.43 -28.26,104.43 l 65.63,16.04 c 5.39,-24.32 15.43,-66.33 24.35,-86.06"
         style="fill:#193d35;fill-opacity:1;fill-rule:nonzero;stroke:none"
         id="path138" />
      <path
         d="m 2229.52,3744.5 72.2,-49.8 -78.49,-78.05 2.08,-39.04 145.56,-31.22 -103.94,-25.35 -103.34,22.16 -2.11,39.04 78.5,78.03 -72.21,49.82 9.11,112.73 -0.2,0.39 0.21,-0.13 0.04,0.25 0.22,-0.37 56.39,-28.87 -4.02,-49.59"
         style="fill:#193d35;fill-opacity:1;fill-rule:nonzero;stroke:none"
         id="path140" />
      <path
         d="m 2541.31,2922.74 176.36,2.7 -0.83,-1.34 -147.39,-24.7 12.16,-9.51 -102.02,-1.54 -54.77,40.08 71.55,27.19 44.94,-32.88"
         style="fill:#193d35;fill-opacity:1;fill-rule:nonzero;stroke:none"
         id="path142" />
      <path
         d="m 2632.28,2850.22 c 0,0 26.76,2.77 120.92,11.53 -1.9,-2.49 -3.82,-5.06 -5.79,-7.66 l -75.08,-28.53 c -78.67,-7.37 -101.76,-9.73 -101.76,-9.73 l -62.84,49.16 87.03,14.59 37.52,-29.36"
         style="fill:#193d35;fill-opacity:1;fill-rule:nonzero;stroke:none"
         id="path144" />
      <path
         d="m 2448.05,3122.96 -135.14,-4.89 c -21.95,25.28 -41.02,79.05 -41.02,79.05 l 68.48,17.13 c 7.45,-17.95 20.27,-45.64 34.29,-61.77 l 135.11,4.92 -87.16,-116.01 38.45,-33.65 139.25,-1.67 -89.57,-34.06 -111.38,1.32 -38.5,33.68 87.19,115.95"
         style="fill:#193d35;fill-opacity:1;fill-rule:nonzero;stroke:none"
         id="path146" />
      <path
         d="m 2708.57,2793.14 100.41,-31.59 -8.75,-34.47 11.47,-20.19 -15.36,4.85 -4,-15.64 -11.11,20.39 -134.36,42.23 -44.72,29.23 72.31,27.49 34.11,-22.3"
         style="fill:#193d35;fill-opacity:1;fill-rule:nonzero;stroke:none"
         id="path148" />
      <path
         d="m 2418.25,2557.4 -39.05,103.27 -51.85,-88.84 c -25.18,-3.85 -67.49,5.77 -67.49,5.77 l 34.96,105.75 -75.88,-101.84 -30.73,6.27 -0.76,107.59 -70.51,-91.74 c -23.71,3.31 -78.6,24.35 -78.6,24.35 l 34.32,101.76 -79.32,-80.85 -25.94,14.55 -18.22,82.21 -61.37,-26.15 -68.76,51.76 -0.3,0.03 0.18,0.08 -0.15,0.12 0.27,-0.01 116.48,68.7 64.69,-52.71 -21.66,74.53 49.13,20.73 94.5,-84.38 -47.15,91.6 c 0,0 67.34,18.14 91.27,18.81 l 110.57,-96.6 -70.43,100.29 31.25,2.77 120.98,-95.78 -62.98,100.98 c 0,0 77.79,1.99 102.37,-4.66 l 48.37,-88.49 -8,89.57 35.85,-15.11 47.43,-94.73 -8.24,92.23 45.63,-24.14 59.31,-126.92 -33.97,115.41 54.54,-26.62 c 0,0 7.92,-21.78 37.4,-100.11 l -7.84,87.75 34.88,-20.88 73.56,-77.89 17.68,-0.85 -9.39,-7.92 8.43,-8.91 -17.62,1.15 -81.87,-69.14 -36.95,-16.83 17.6,86.33 c -38.07,-74.56 -48.39,-95.32 -48.39,-95.32 l -57.15,-20.33 46.67,110.87 -73.14,-119.5 -48.07,-18.85 18.51,90.72 -57.74,-88.82 -37.31,-11.03"
         style="fill:#1d483f;fill-opacity:1;fill-rule:nonzero;stroke:none"
         id="path150" />
      <path
         d="m 2003.38,2765.37 -64.68,52.7 -101.92,-60.12 -17.73,13.31 -0.3,0.03 0.18,0.08 -0.15,0.12 0.27,-0.01 116.48,68.7 60.41,-49.22 7.44,-25.59"
         style="fill:#317b6c;fill-opacity:1;fill-rule:nonzero;stroke:none"
         id="path152" />
      <path
         d="m 2621.57,2726.04 -59.29,126.94 -45.66,24.15 8.26,-92.24 -47.43,94.71 -35.84,15.15 7.98,-89.59 -48.35,88.47 c -19,5.13 -69.76,5.1 -91.86,4.85 l -13.68,21.94 c 0,0 77.79,1.99 102.37,-4.66 l 48.37,-88.49 -8,89.57 35.85,-15.11 47.43,-94.73 -8.24,92.23 45.63,-24.14 50.23,-107.52 12.23,-41.53"
         style="fill:#317b6c;fill-opacity:1;fill-rule:nonzero;stroke:none"
         id="path154" />
      <path
         d="m 2775.43,2708.74 -68.85,72.88 -34.86,20.87 7.83,-87.77 c -29.45,78.33 -37.42,100.11 -37.42,100.11 l -50.61,24.72 -7.07,24.03 54.54,-26.62 c 0,0 7.92,-21.78 37.4,-100.11 l -7.84,87.75 34.88,-20.88 73.56,-77.89 17.68,-0.85 -9.39,-7.92 8.43,-8.91 -17.62,1.15 -0.66,-0.56"
         style="fill:#317b6c;fill-opacity:1;fill-rule:nonzero;stroke:none"
         id="path156" />
      <path
         d="m 2361.84,2797.35 -121,95.78 -19.58,-1.77 -14.81,21.09 31.25,2.77 99.96,-79.14 24.18,-38.73"
         style="fill:#317b6c;fill-opacity:1;fill-rule:nonzero;stroke:none"
         id="path158" />
      <path
         d="m 2125.31,2776.24 -94.47,84.35 -46.2,-19.47 -6.08,20.88 49.13,20.73 79.24,-70.77 18.38,-35.72"
         style="fill:#317b6c;fill-opacity:1;fill-rule:nonzero;stroke:none"
         id="path160" />
      <path
         d="m 2280.02,2790.03 -110.57,96.61 c -19.14,-0.54 -65.98,-12.24 -84,-16.91 l -10.41,20.22 c 0,0 67.34,18.14 91.27,18.81 l 78.53,-68.66 35.18,-50.07"
         style="fill:#317b6c;fill-opacity:1;fill-rule:nonzero;stroke:none"
         id="path162" />
      <path
         d="m 2616.54,2754.59 2.46,4.03 -2.13,-5.1 z"
         style="fill:#193d35;fill-opacity:1;fill-rule:nonzero;stroke:none"
         id="path164" />
      <path
         d="m 2674.62,2756.94 c 1.06,2.13 2.16,4.24 3.25,6.45 l -2.66,-13.14 -0.59,6.69"
         style="fill:#193d35;fill-opacity:1;fill-rule:nonzero;stroke:none"
         id="path166" />
      <path
         d="m 2119.99,2657.37 70.47,91.74 0.77,-107.57 30.71,-6.26 75.89,101.82 -29.5,-89.22 -49.39,-66.29 -30.73,6.27 -0.76,107.58 -70.49,-91.73 c -23.7,3.31 -78.63,24.3 -78.63,24.3 l 16.43,48.74 c 17.79,-6.43 48.91,-17.11 65.23,-19.38"
         style="fill:#193d35;fill-opacity:1;fill-rule:nonzero;stroke:none"
         id="path168" />
      <path
         d="m 1890.84,2773.26 61.39,26.14 18.18,-82.21 25.96,-14.54 79.28,80.81 -25.98,-77.09 -56.31,-57.41 -25.96,14.57 -18.18,82.18 -61.41,-26.13 -68.76,51.74 -0.3,0.03 0.16,0.1 -0.16,0.12 0.33,-0.02 41.51,24.47 30.25,-22.76"
         style="fill:#193d35;fill-opacity:1;fill-rule:nonzero;stroke:none"
         id="path170" />
      <path
         d="m 2545.85,2639.15 70.07,114.44 0.51,-1.1 -44.11,-104.76 11.06,3.94 -40.55,-66.22 -48.06,-18.84 11.65,57.06 39.43,15.48"
         style="fill:#193d35;fill-opacity:1;fill-rule:nonzero;stroke:none"
         id="path172" />
      <path
         d="m 2629.49,2668.1 c 0,0 9.1,18.33 41.82,82.38 0.83,-2.24 1.67,-4.5 2.57,-6.82 l -12.24,-59.84 c -27.28,-53.58 -35.16,-69.41 -35.16,-69.41 l -57.19,-20.31 26.07,61.83 34.13,12.17"
         style="fill:#193d35;fill-opacity:1;fill-rule:nonzero;stroke:none"
         id="path174" />
      <path
         d="m 2379.2,2660.71 -51.86,-88.79 c -25.17,-3.87 -67.48,5.76 -67.48,5.76 l 16.87,50.98 c 14.54,-2.52 37.58,-5.53 53.63,-3.09 l 51.86,88.83 39.04,-103.24 37.31,11.02 57.76,88.81 -14.6,-71.45 -46.17,-71.05 -37.3,-11 -39.06,103.22"
         style="fill:#193d35;fill-opacity:1;fill-rule:nonzero;stroke:none"
         id="path176" />
      <path
         d="m 2697.25,2693.89 61.15,51.7 18.61,-19.68 17.64,-0.85 -9.37,-7.91 8.43,-8.92 -17.64,1.15 -81.83,-69.16 -36.97,-16.82 11.75,57.64 28.23,12.85"
         style="fill:#193d35;fill-opacity:1;fill-rule:nonzero;stroke:none"
         id="path178" />
      <path
         d="m 2666.2,3137.79 112.34,42.51 -96.66,56.45 c -4.19,27.38 6.3,73.4 6.3,73.4 l 115.05,-38.01 -110.81,82.54 6.82,33.45 117.08,0.85 -99.82,76.7 c 3.58,25.79 26.46,85.54 26.46,85.54 l 110.74,-37.33 -87.94,86.29 15.8,28.23 89.46,19.8 -28.44,66.82 56.33,74.8 0.03,0.33 0.08,-0.15 0.14,0.15 -0.01,-0.33 74.74,-126.76 -57.35,-70.36 81.11,23.54 22.53,-53.43 -91.8,-102.83 99.69,51.31 c 0,0 19.71,-73.28 20.44,-99.34 l -105.13,-120.32 109.14,76.65 3.05,-34.02 -104.25,-131.66 109.88,68.57 c 0,0 2.16,-84.67 -5.07,-111.39 l -96.27,-52.63 97.46,8.67 -16.46,-38.99 -103.08,-51.63 100.36,8.98 -26.25,-49.66 -138.11,-64.52 125.58,36.94 -28.99,-59.35 c 0,0 -23.69,-8.63 -108.92,-40.7 l 95.47,8.53 -22.7,-37.93 -84.77,-80.07 -0.89,-19.2 -8.61,10.19 -9.71,-9.16 1.23,19.19 -75.26,89.06 -18.3,40.22 93.91,-19.16 c -81.09,41.41 -103.67,52.68 -103.67,52.68 l -22.11,62.19 120.62,-50.78 -130,79.57 -20.56,52.27 98.72,-20.1 -96.64,62.81 -11.98,40.58"
         style="fill:#1d483f;fill-opacity:1;fill-rule:nonzero;stroke:none"
         id="path180" />
      <path
         d="m 2892.49,3589.27 57.34,70.39 -65.43,110.89 14.51,19.28 0.03,0.33 0.08,-0.15 0.14,0.15 -0.01,-0.33 74.74,-126.76 -53.53,-65.71 -27.87,-8.09"
         style="fill:#317b6c;fill-opacity:1;fill-rule:nonzero;stroke:none"
         id="path182" />
      <path
         d="m 2849.69,2916.59 138.1,64.5 26.29,49.66 -100.37,-8.95 103.09,51.61 16.46,38.98 -97.48,-8.69 96.27,52.64 c 5.61,20.68 5.57,75.88 5.3,99.94 l 23.85,14.9 c 0,0 2.16,-84.67 -5.07,-111.39 l -96.27,-52.63 97.46,8.67 -16.46,-38.99 -103.05,-51.61 100.33,8.96 -26.26,-49.66 -117,-54.67 -45.19,-13.27"
         style="fill:#317b6c;fill-opacity:1;fill-rule:nonzero;stroke:none"
         id="path184" />
      <path
         d="m 2830.84,2749.17 79.34,74.9 22.68,37.93 -95.5,-8.53 c 85.27,32.09 108.96,40.72 108.96,40.72 l 26.86,55.08 26.18,7.68 -28.99,-59.33 c 0,0 -23.69,-8.65 -108.92,-40.72 l 95.47,8.53 -22.7,-37.93 -84.77,-80.07 -0.89,-19.2 -8.61,10.19 -9.71,-9.16 1.23,19.19 -0.63,0.72"
         style="fill:#317b6c;fill-opacity:1;fill-rule:nonzero;stroke:none"
         id="path186" />
      <path
         d="m 2927.28,3199.21 104.21,131.64 -1.92,21.33 22.95,16.11 3.05,-34.02 -86.14,-108.75 -42.15,-26.31"
         style="fill:#317b6c;fill-opacity:1;fill-rule:nonzero;stroke:none"
         id="path188" />
      <path
         d="m 2904.32,3456.57 91.79,102.8 -21.21,50.29 22.75,6.59 22.53,-53.43 -76.98,-86.25 -38.88,-20"
         style="fill:#317b6c;fill-opacity:1;fill-rule:nonzero;stroke:none"
         id="path190" />
      <path
         d="m 2919.32,3288.22 105.12,120.31 c -0.57,20.83 -13.33,71.85 -18.39,91.43 l 22.02,11.34 c 0,0 19.71,-73.28 20.44,-99.34 l -74.69,-85.48 -54.5,-38.26"
         style="fill:#317b6c;fill-opacity:1;fill-rule:nonzero;stroke:none"
         id="path192" />
      <path
         d="m 2880.79,2922.02 4.37,-2.65 -5.55,2.32 z"
         style="fill:#193d35;fill-opacity:1;fill-rule:nonzero;stroke:none"
         id="path194" />
      <path
         d="m 2883.34,2858.85 c 2.29,-1.16 4.61,-2.35 6.97,-3.58 l -14.27,2.94 7.3,0.64"
         style="fill:#193d35;fill-opacity:1;fill-rule:nonzero;stroke:none"
         id="path196" />
      <path
         d="m 2774.96,3462.39 99.83,-76.7 -117.08,-0.84 -6.81,-33.46 110.81,-82.55 -97.07,32.11 -72.14,53.73 6.84,33.43 117.05,0.85 -99.86,76.71 c 3.63,25.79 26.52,85.55 26.52,85.55 l 52.99,-17.87 c -6.98,-19.36 -18.59,-53.21 -21.08,-70.96"
         style="fill:#193d35;fill-opacity:1;fill-rule:nonzero;stroke:none"
         id="path198" />
      <path
         d="m 2901.09,3711.75 28.42,-66.82 -89.45,-19.8 -15.83,-28.25 87.96,-86.28 -83.91,28.29 -62.46,61.27 15.8,28.25 89.48,19.8 -28.4,66.82 56.27,74.8 0.01,0.33 0.15,-0.15 0.11,0.15 -0.04,-0.35 26.62,-45.17 -24.73,-32.89"
         style="fill:#193d35;fill-opacity:1;fill-rule:nonzero;stroke:none"
         id="path200" />
      <path
         d="m 2755.15,2998.95 124.52,-76.25 -1.17,-0.54 -114,48 4.29,-12.05 -72.05,44.12 -20.53,52.31 62.07,-12.69 16.87,-42.9"
         style="fill:#193d35;fill-opacity:1;fill-rule:nonzero;stroke:none"
         id="path202" />
      <path
         d="m 2786.63,2907.92 c 0,0 19.95,-9.9 89.66,-45.47 -2.42,-0.88 -4.9,-1.84 -7.42,-2.78 l -65.14,13.27 c -58.28,29.72 -75.5,38.28 -75.5,38.28 l -22.15,62.22 67.32,-28.34 13.23,-37.18"
         style="fill:#193d35;fill-opacity:1;fill-rule:nonzero;stroke:none"
         id="path204" />
      <path
         d="m 2778.6,3180.3 -96.63,56.43 c -4.2,27.38 6.28,73.45 6.28,73.45 l 55.48,-18.35 c -2.73,-15.88 -6.03,-40.9 -3.37,-58.38 l 96.68,-56.43 -112.37,-42.49 11.97,-40.6 96.69,-62.84 -77.78,15.89 -77.28,50.23 -12,40.58 112.33,42.51"
         style="fill:#193d35;fill-opacity:1;fill-rule:nonzero;stroke:none"
         id="path206" />
      <path
         d="m 2814.73,2834.22 56.23,-66.56 -21.42,-20.23 -0.92,-19.2 -8.6,10.19 -9.71,-9.17 1.25,19.18 -75.25,89.09 -18.34,40.22 62.75,-12.79 14.01,-30.73"
         style="fill:#193d35;fill-opacity:1;fill-rule:nonzero;stroke:none"
         id="path208" />
      <path
         d="m 1932.96,1810.01 -801.16,-472.27 -490.745,832.51 801.165,472.26 490.74,-832.5"
         style="fill:#fffccc;fill-opacity:1;fill-rule:nonzero;stroke:none"
         id="path210" />
      <path
         d="m 1932.96,1810.01 -5.82,9.86 -791.3,-466.44 -479.106,812.77 781.426,460.63 484.93,-822.64 9.87,5.82 -5.82,9.86 5.82,-9.86 9.86,5.81 -496.57,842.37 -820.879,-483.89 502.369,-852.24 820.9,483.9 -5.82,9.86 -9.86,-5.81"
         style="fill:#231f20;fill-opacity:1;fill-rule:nonzero;stroke:none"
         id="path212" />
      <path
         d="M 1707.19,1979 1093.26,1617.12 777.043,2153.56 1390.95,2515.45 1707.19,1979"
         style="fill:#231f20;fill-opacity:1;fill-rule:nonzero;stroke:none"
         id="path214" />
      <path
         d="M 1824.33,1664.02 1242.22,938.738 488.547,1543.63 1070.66,2268.91 1824.33,1664.02"
         style="fill:#fffccc;fill-opacity:1;fill-rule:nonzero;stroke:none"
         id="path216" />
      <path
         d="m 1824.33,1664.02 -8.94,7.17 -574.94,-716.35 -735.805,590.55 567.775,707.42 744.73,-597.72 7.18,8.93 -8.94,7.17 8.94,-7.17 7.16,8.93 -762.59,612.06 -596.462,-743.14 771.532,-619.229 596.45,743.149 -8.93,7.16 -7.16,-8.93"
         style="fill:#231f20;fill-opacity:1;fill-rule:nonzero;stroke:none"
         id="path218" />
      <path
         d="m 1553.35,1742.16 -446.06,-555.78 -485.642,389.78 446.062,555.77 485.64,-389.77"
         style="fill:#231f20;fill-opacity:1;fill-rule:nonzero;stroke:none"
         id="path220" />
      <path
         d="m 2572.3,857.262 c 0,-42.453 -34.4,-76.852 -76.85,-76.852 H 1233.29 c -42.43,0 -76.85,34.399 -76.85,76.852 V 1690.6 c 0,42.44 34.42,76.87 76.85,76.87 h 1262.16 c 42.45,0 76.85,-34.43 76.85,-76.87 V 857.262"
         style="fill:#393536;fill-opacity:1;fill-rule:nonzero;stroke:none"
         id="path222" />
      <path
         d="m 2495.45,1767.47 h -105.09 c 2.46,-22.5 3.5,-45.07 3.4,-67.22 -0.41,-95.38 -22.02,-192.24 -57.63,-280.49 -75.69,-187.52 -209.35,-355.35 -383.7,-459.99 -174.78,-104.872 -380.3,-158.25 -582.77,-179.36 h 1125.79 c 42.45,0 76.85,34.399 76.85,76.852 V 1690.6 c 0,42.44 -34.4,76.87 -76.85,76.87"
         style="fill:#353132;fill-opacity:1;fill-rule:nonzero;stroke:none"
         id="path224" />
      <path
         d="M 1559.99,846.18 H 2572.3 v 83.531 H 1559.99 V 846.18"
         style="fill:#231f20;fill-opacity:1;fill-rule:nonzero;stroke:none"
         id="path226" />
      <path
         d="m 2344.12,2019.03 c 0,-42.45 -34.42,-76.86 -76.86,-76.86 h -515.1 c -42.45,0 -76.88,34.41 -76.88,76.86 v 233.58 c 0,42.45 34.43,76.86 76.88,76.86 h 515.1 c 42.44,0 76.86,-34.41 76.86,-76.86 v -233.58"
         style="fill:#393536;fill-opacity:1;fill-rule:nonzero;stroke:none"
         id="path228" />
      <path
         d="m 1559.99,829.988 c 0,-42.437 -34.39,-76.859 -76.86,-76.859 l -249.84,-40.457 c -42.44,0 -76.85,34.418 -76.85,76.867 v 961.991 c 0,42.44 34.41,76.86 76.85,76.86 l 249.84,-39.65 c 42.47,0 76.86,-34.41 76.86,-76.87 V 829.988"
         style="fill:#302d2e;fill-opacity:1;fill-rule:nonzero;stroke:none"
         id="path230" />
      <path
         d="m 2503.97,1273.93 c 0,-227.89 -184.73,-412.621 -412.61,-412.621 -227.89,0 -412.63,184.731 -412.63,412.621 0,227.89 184.74,412.62 412.63,412.62 227.88,0 412.61,-184.73 412.61,-412.62"
         style="fill:#292627;fill-opacity:1;fill-rule:nonzero;stroke:none"
         id="path232" />
      <path
         d="m 2410.95,1270.53 c 0,-176.5 -143.11,-319.589 -319.59,-319.589 -176.5,0 -319.59,143.089 -319.59,319.589 0,176.5 143.09,319.58 319.59,319.58 176.48,0 319.59,-143.08 319.59,-319.58"
         style="fill:#231f20;fill-opacity:1;fill-rule:nonzero;stroke:none"
         id="path234" />
      <path
         d="m 2379.09,1273.93 c 0,-158.91 -128.82,-287.75 -287.73,-287.75 -158.91,0 -287.76,128.84 -287.76,287.75 0,158.92 128.85,287.75 287.76,287.75 158.91,0 287.73,-128.83 287.73,-287.75"
         style="fill:#84d7e3;fill-opacity:1;fill-rule:nonzero;stroke:none"
         id="path236" />
      <path
         d="m 2070.6,1273.93 c 0,110.72 62.57,206.77 154.25,254.89 -39.9,20.95 -85.3,32.86 -133.49,32.86 -158.91,0 -287.76,-128.83 -287.76,-287.75 0,-158.91 128.85,-287.75 287.76,-287.75 48.19,0 93.59,11.91 133.49,32.86 -91.68,48.12 -154.25,144.17 -154.25,254.89"
         style="fill:#66cde2;fill-opacity:1;fill-rule:nonzero;stroke:none"
         id="path238" />
      <path
         d="m 2271.38,1270.53 c 0,-99.41 -80.61,-180.01 -180.02,-180.01 -99.43,0 -180.02,80.6 -180.02,180.01 0,99.42 80.59,180.01 180.02,180.01 99.41,0 180.02,-80.59 180.02,-180.01"
         style="fill:#a1e0e3;fill-opacity:1;fill-rule:nonzero;stroke:none"
         id="path240" />
      <path
         d="m 2235.32,1274.1 c 0,-79.49 -64.45,-143.96 -143.96,-143.96 -79.51,0 -143.97,64.47 -143.97,143.96 0,79.51 64.46,143.97 143.97,143.97 79.51,0 143.96,-64.46 143.96,-143.97"
         style="fill:#78d3e2;fill-opacity:1;fill-rule:nonzero;stroke:none"
         id="path242" />
      <path
         d="m 2205.22,1274.1 c 0,-62.89 -50.97,-113.87 -113.86,-113.87 -62.89,0 -113.89,50.98 -113.89,113.87 0,62.9 51,113.89 113.89,113.89 62.89,0 113.86,-50.99 113.86,-113.89"
         style="fill:#5898a6;fill-opacity:1;fill-rule:nonzero;stroke:none"
         id="path244" />
      <path
         d="m 2173.01,1274.1 c 0,-45.09 -36.56,-81.64 -81.65,-81.64 -45.1,0 -81.65,36.55 -81.65,81.64 0,45.11 36.55,81.66 81.65,81.66 45.09,0 81.65,-36.55 81.65,-81.66"
         style="fill:#3b646f;fill-opacity:1;fill-rule:nonzero;stroke:none"
         id="path246" />
      <path
         d="m 2139.46,1274.1 c 0,-26.56 -21.54,-48.1 -48.1,-48.1 -26.57,0 -48.11,21.54 -48.11,48.1 0,26.57 21.54,48.11 48.11,48.11 26.56,0 48.1,-21.54 48.1,-48.11"
         style="fill:#16222b;fill-opacity:1;fill-rule:nonzero;stroke:none"
         id="path248" />
      <path
         d="m 2076.38,1614.16 c -1.92,-0.08 -3.58,0.52 -4.97,1.8 -1.4,1.28 -2.13,2.88 -2.22,4.77 l -0.67,15.7 c -0.08,1.92 0.52,3.58 1.81,4.97 1.29,1.4 2.88,2.14 4.78,2.22 1.91,0.09 3.57,-0.52 4.96,-1.81 1.39,-1.29 2.12,-2.89 2.21,-4.78 l 0.13,-3.28 -4.5,-0.2 -0.14,3.38 -0.82,1.73 -1.79,0.66 -1.72,-0.81 -0.66,-1.79 0.68,-15.76 0.8,-1.72 1.78,-0.66 1.74,0.8 0.67,1.79 -0.18,3.97 4.5,0.2 0.18,-4.02 c 0.08,-1.91 -0.53,-3.57 -1.82,-4.96 -1.29,-1.38 -2.87,-2.12 -4.75,-2.2"
         style="fill:#231f20;fill-opacity:1;fill-rule:nonzero;stroke:none"
         id="path250" />
      <path
         d="m 2093.14,1637.03 -1.61,-11.35 h 3.22 z m -2.29,-15.58 -1.06,-6.62 h -4.52 l 4.91,28.8 h 5.97 l 4.82,-28.81 -4.56,0.01 -1.02,6.61 -4.54,0.01"
         style="fill:#231f20;fill-opacity:1;fill-rule:nonzero;stroke:none"
         id="path252" />
      <path
         d="m 2108.62,1614.45 -4.33,0.29 1.9,28.76 6.22,-0.41 2.67,-20.92 5.25,20.4 5.98,-0.4 -1.92,-28.76 -4.33,0.29 1.2,18.06 -4.96,-17.82 -3.49,0.24 -3,18.3 -1.19,-18.03"
         style="fill:#231f20;fill-opacity:1;fill-rule:nonzero;stroke:none"
         id="path254" />
      <path
         d="m 2128,1612.96 3.56,28.6 12.27,-1.53 -0.54,-4.33 -7.96,0.99 -0.97,-7.81 5.82,-0.72 -0.54,-4.33 -5.82,0.73 -0.97,-7.8 7.96,-1 -0.55,-4.34 -12.26,1.54"
         style="fill:#231f20;fill-opacity:1;fill-rule:nonzero;stroke:none"
         id="path256" />
      <path
         d="m 2156.02,1630.97 c 0.28,1.64 -0.39,2.61 -2.02,2.89 l -2.58,0.45 -1.58,-9.08 2.59,-0.45 1.86,0.42 1.01,1.62 z m -1.38,7.28 c 2.39,-0.41 4.02,-1.37 4.92,-2.87 0.78,-1.32 1,-3.01 0.64,-5.06 l -0.72,-4.12 c -0.34,-2.01 -1.39,-3.58 -3.16,-4.71 l 1.02,-12.93 -4.63,0.8 -0.74,11.14 -0.39,0.06 -2.47,0.43 -1.84,-10.69 -4.28,0.74 4.9,28.38 6.75,-1.17"
         style="fill:#231f20;fill-opacity:1;fill-rule:nonzero;stroke:none"
         id="path258" />
      <path
         d="m 2172.94,1627.87 -4.09,-10.71 3.13,-0.72 z m -5.69,-14.68 -2.5,-6.22 -4.42,1.01 11.19,26.98 5.82,-1.33 -1.71,-29.15 -4.45,1.02 0.49,6.68 -4.42,1.01"
         style="fill:#231f20;fill-opacity:1;fill-rule:nonzero;stroke:none"
         id="path260" />
      <path
         d="m 2196.14,1621.4 -0.13,1.94 -1.55,1.16 -2.51,0.74 -2.58,-8.85 2.51,-0.74 1.9,0.22 1.19,1.49 z m -0.54,7.4 c 2.03,-0.6 3.46,-1.71 4.29,-3.34 0.76,-1.55 0.87,-3.28 0.32,-5.17 l -1.18,-4.01 c -0.53,-1.83 -1.62,-3.21 -3.27,-4.12 -1.65,-0.93 -3.38,-1.13 -5.19,-0.6 l -2.41,0.7 -3.03,-10.41 -4.17,1.21 8.06,27.65 6.58,-1.91"
         style="fill:#231f20;fill-opacity:1;fill-rule:nonzero;stroke:none"
         id="path262" />
      <path
         d="m 2213.3,1615.81 c 0.55,1.57 0.04,2.63 -1.52,3.17 l -2.47,0.87 -3.03,-8.71 2.47,-0.86 1.9,0.12 1.26,1.43 z m -0.17,7.4 c 2.29,-0.79 3.75,-2.01 4.38,-3.64 0.56,-1.43 0.49,-3.13 -0.2,-5.09 l -1.37,-3.96 c -0.67,-1.92 -1.97,-3.29 -3.89,-4.12 l -1.09,-12.93 -4.45,1.55 1.09,11.11 -0.37,0.13 -2.37,0.83 -3.56,-10.26 -4.11,1.44 9.47,27.2 6.47,-2.26"
         style="fill:#231f20;fill-opacity:1;fill-rule:nonzero;stroke:none"
         id="path264" />
      <path
         d="m 2230.35,1609.81 -0.02,1.91 -1.36,1.32 -1.9,-0.01 -1.35,-1.35 -5.91,-14.61 0.02,-1.92 1.37,-1.32 1.91,0.01 1.32,1.35 z m 0.35,7.2 c 1.78,-0.72 3.04,-1.95 3.77,-3.71 0.74,-1.75 0.75,-3.51 0.04,-5.28 l -5.9,-14.57 c -0.71,-1.77 -1.95,-3.03 -3.7,-3.77 -1.76,-0.74 -3.51,-0.75 -5.27,-0.03 -1.78,0.72 -3.03,1.95 -3.76,3.7 -0.73,1.74 -0.74,3.5 -0.03,5.26 l 5.9,14.58 c 0.72,1.78 1.95,3.03 3.71,3.77 1.75,0.73 3.5,0.75 5.24,0.05"
         style="fill:#231f20;fill-opacity:1;fill-rule:nonzero;stroke:none"
         id="path266" />
      <path
         d="m 2233.44,1584.09 -3.95,1.83 12.1,26.15 11.23,-5.2 -1.83,-3.95 -7.29,3.37 -3.3,-7.14 5.32,-2.46 -1.83,-3.97 -5.33,2.46 -5.12,-11.09"
         style="fill:#231f20;fill-opacity:1;fill-rule:nonzero;stroke:none"
         id="path268" />
      <path
         d="m 2243.14,1579.54 13.26,25.59 10.97,-5.68 -2,-3.88 -7.13,3.69 -3.61,-6.99 5.2,-2.69 -2,-3.88 -5.2,2.7 -3.63,-6.99 7.13,-3.68 -2.01,-3.88 -10.98,5.69"
         style="fill:#231f20;fill-opacity:1;fill-rule:nonzero;stroke:none"
         id="path270" />
      <path
         d="m 2272.53,1571.57 c -0.98,-1.75 -2.29,-2.98 -3.93,-3.67 -1.09,-0.48 -2.29,-0.58 -3.61,-0.28 l -2.25,0.93 c -1.47,0.85 -2.48,1.93 -3.02,3.21 -0.47,1.07 -0.64,2.25 -0.51,3.55 0.12,1.31 0.53,2.64 1.21,4.01 l 3.73,-1.81 c -0.68,-1.55 -0.91,-2.83 -0.67,-3.83 l 1.15,-1.59 c 0.83,-0.45 1.73,-0.43 2.66,0.07 l 1.34,1.43 c 0.6,1.04 0.73,2.34 0.37,3.91 -0.33,1.13 -0.84,2.83 -1.5,5.09 -0.56,1.94 -0.81,3.53 -0.77,4.78 0.07,1.4 0.46,2.73 1.19,3.99 1.32,2.27 3.08,3.55 5.27,3.83 1.35,0.16 2.73,-0.16 4.11,-0.96 1.34,-0.79 2.32,-1.74 2.92,-2.89 0.48,-0.89 0.71,-1.9 0.68,-2.99 -0.02,-1.11 -0.3,-2.23 -0.84,-3.37 l -3.99,1.43 c 0.49,1.08 0.66,2.04 0.51,2.89 l -1.13,1.49 -2.1,-0.01 -1.5,-1.58 c -0.66,-1.14 -0.84,-2.58 -0.54,-4.33 0.11,-0.66 0.36,-1.52 0.75,-2.56 0.45,-1.24 0.73,-2.08 0.84,-2.54 0.39,-1.46 0.58,-2.79 0.56,-3.98 l -0.1,-1.51 c -0.16,-1.1 -0.43,-2 -0.83,-2.71"
         style="fill:#231f20;fill-opacity:1;fill-rule:nonzero;stroke:none"
         id="path272" />
      <path
         d="m 2287.19,1562.18 c -1.07,-1.69 -2.43,-2.86 -4.1,-3.47 -1.13,-0.42 -2.33,-0.46 -3.63,-0.09 l -2.2,1.04 c -1.43,0.92 -2.39,2.05 -2.87,3.35 -0.41,1.1 -0.51,2.29 -0.33,3.58 0.2,1.29 0.67,2.61 1.42,3.94 l 3.64,-2 c -0.76,-1.5 -1.05,-2.77 -0.87,-3.79 l 1.07,-1.65 c 0.82,-0.49 1.71,-0.5 2.67,-0.06 l 1.41,1.37 c 0.64,1.01 0.84,2.3 0.56,3.88 -0.28,1.15 -0.7,2.87 -1.25,5.16 -0.45,1.96 -0.63,3.57 -0.53,4.82 0.13,1.39 0.6,2.69 1.39,3.92 1.43,2.2 3.25,3.39 5.45,3.57 1.36,0.09 2.72,-0.3 4.07,-1.18 1.29,-0.84 2.22,-1.85 2.77,-3.03 0.43,-0.92 0.6,-1.92 0.53,-3.02 -0.09,-1.1 -0.42,-2.2 -1.02,-3.32 l -3.91,1.63 c 0.55,1.06 0.77,2.01 0.66,2.86 l -1.07,1.54 -2.09,0.1 -1.58,-1.5 c -0.71,-1.11 -0.96,-2.54 -0.75,-4.31 0.08,-0.66 0.28,-1.53 0.62,-2.58 0.39,-1.26 0.63,-2.12 0.72,-2.58 0.31,-1.49 0.44,-2.82 0.36,-4.02 l -0.18,-1.49 c -0.21,-1.08 -0.53,-1.97 -0.96,-2.67"
         style="fill:#231f20;fill-opacity:1;fill-rule:nonzero;stroke:none"
         id="path274" />
      <path
         d="m 2289.74,1551.61 -3.56,2.49 16.55,23.57 3.56,-2.5 -16.55,-23.56"
         style="fill:#231f20;fill-opacity:1;fill-rule:nonzero;stroke:none"
         id="path276" />
      <path
         d="m 2313.54,1561.81 0.48,1.84 -0.95,1.64 -1.86,0.49 -1.64,-0.96 -9.53,-12.56 -0.48,-1.84 0.98,-1.65 1.83,-0.49 1.64,0.97 z m 2.22,6.85 c 1.53,-1.15 2.42,-2.68 2.68,-4.56 0.25,-1.89 -0.2,-3.59 -1.35,-5.1 l -9.49,-12.53 c -1.16,-1.52 -2.69,-2.41 -4.57,-2.66 -1.89,-0.26 -3.59,0.19 -5.1,1.33 -1.52,1.17 -2.41,2.68 -2.66,4.56 -0.24,1.88 0.21,3.58 1.35,5.09 l 9.5,12.53 c 1.16,1.52 2.68,2.41 4.56,2.67 1.89,0.25 3.59,-0.19 5.08,-1.33"
         style="fill:#231f20;fill-opacity:1;fill-rule:nonzero;stroke:none"
         id="path278" />
      <path
         d="m 2328.59,1558.04 -8.07,-18.52 12.49,14.81 3.32,-2.8 -18.59,-22.04 -3.56,3.01 7.32,17.97 -11.89,-14.12 -3.32,2.8 18.57,22.04 3.73,-3.15"
         style="fill:#231f20;fill-opacity:1;fill-rule:nonzero;stroke:none"
         id="path280" />
      <path
         d="m 2341.25,1538.01 -8.96,-7.16 2.35,-2.21 z m -12.34,-9.79 -5.31,-4.09 -3.3,3.09 23.3,17.63 4.36,-4.1 -16.22,-24.28 -3.32,3.13 3.79,5.51 -3.3,3.11"
         style="fill:#231f20;fill-opacity:1;fill-rule:nonzero;stroke:none"
         id="path282" />
      <path
         d="m 2342.35,1505.48 -8.2,8.53 20.76,19.96 3.01,-3.12 -17.65,-16.98 5.2,-5.4 -3.12,-2.99"
         style="fill:#231f20;fill-opacity:1;fill-rule:nonzero;stroke:none"
         id="path284" />
      <path
         d="m 2361.79,1514.91 c 2.06,1.79 4.12,2.59 6.17,2.42 1.8,-0.14 3.37,-0.98 4.72,-2.55 1.24,-1.43 1.76,-3.12 1.56,-5.08 -0.21,-1.94 -1.03,-3.53 -2.46,-4.77 -1.49,-1.29 -3.21,-2.19 -5.16,-2.73 -1.07,-0.3 -3.11,-0.59 -6.12,-0.88 -0.82,-0.08 -2.08,-0.24 -3.77,-0.46 l -1.4,-0.17 c -0.91,-0.13 -1.62,-0.22 -2.12,-0.32 l -0.44,-0.13 5.58,-6.45 -3.22,-2.79 -9.03,10.46 3.02,2.6 c 0.07,0.07 0.67,0.18 1.82,0.32 l 1.76,0.22 1.97,0.2 c 1.12,0.09 2.89,0.26 5.32,0.49 2.29,0.22 4.22,0.57 5.8,1.05 1.29,0.41 2.34,0.96 3.15,1.67 l 1.21,2.01 -0.63,2.19 c -0.79,0.92 -1.87,1.11 -3.26,0.58 l -1.42,-0.89 -0.84,-0.72 -2.79,3.24 0.58,0.49"
         style="fill:#231f20;fill-opacity:1;fill-rule:nonzero;stroke:none"
         id="path286" />
      <path
         d="m 2380.75,1494.67 0.95,1.67 -0.51,1.84 -1.67,0.94 -1.83,-0.52 -12.42,-9.69 -0.95,-1.65 0.5,-1.84 1.67,-0.94 1.85,0.51 z m -9.7,-13.28 c -1.51,-1.18 -3.2,-1.65 -5.08,-1.4 -1.88,0.24 -3.4,1.11 -4.56,2.6 -1.18,1.5 -1.65,3.2 -1.42,5.08 0.23,1.89 1.09,3.41 2.6,4.57 l 12.39,9.67 c 1.51,1.18 3.21,1.65 5.1,1.42 1.88,-0.25 3.42,-1.12 4.58,-2.61 1.18,-1.51 1.65,-3.2 1.4,-5.09 -0.24,-1.87 -1.11,-3.41 -2.61,-4.57 l -12.4,-9.67"
         style="fill:#231f20;fill-opacity:1;fill-rule:nonzero;stroke:none"
         id="path288" />
      <path
         d="m 2369.93,1471.71 18.04,12.91 -2.16,3.01 2.47,1.76 c 0.7,-0.77 1.6,-1.35 2.7,-1.73 1.08,-0.38 2.14,-0.46 3.15,-0.24 l 1.77,-2.46 -23.45,-16.78 -2.52,3.53"
         style="fill:#231f20;fill-opacity:1;fill-rule:nonzero;stroke:none"
         id="path290" />
      <path
         d="m 2397.53,1474.79 -5.18,-3.39 2.19,-0.74 1.02,-1.07 c 1.04,-1.59 1.25,-3.14 0.63,-4.62 -0.53,-1.29 -1.68,-2.51 -3.43,-3.66 l -5.19,-3.4 c -1.78,-1.16 -3.61,-1.57 -5.49,-1.18 -1.81,0.36 -3.25,1.35 -4.33,2.99 -1.04,1.6 -1.32,3.29 -0.87,5.1 0.44,1.73 1.46,3.12 3.05,4.16 l 0.58,0.38 2.55,-3.31 -0.78,-0.61 -1.16,-2.43 0.28,-0.76 c 0.97,-1.49 2.23,-1.73 3.79,-0.71 l 5.9,3.87 1.24,1.92 -0.34,1.24 -1.69,0.94 -1.64,-0.52 -0.65,-0.43 -2.38,3.63 13.17,8.63 6.96,-10.63 -3.65,-2.39 -4.58,6.99"
         style="fill:#231f20;fill-opacity:1;fill-rule:nonzero;stroke:none"
         id="path292" />
      <path
         d="m 2393.45,1451.11 c 1.63,0.99 3.69,0.39 4.63,-1.23 0.93,-1.62 0.41,-3.67 -1.2,-4.61 -1.66,-0.96 -3.69,-0.42 -4.64,1.23 -0.94,1.62 -0.44,3.66 1.21,4.61"
         style="fill:#231f20;fill-opacity:1;fill-rule:nonzero;stroke:none"
         id="path294" />
      <path
         d="m 2395.29,1430.58 25.79,12.87 5.53,-11.06 -3.9,-1.94 -3.59,7.17 -7.04,-3.51 2.62,-5.25 -3.91,-1.95 -2.62,5.25 -7.03,-3.51 3.59,-7.18 -3.91,-1.95 -5.53,11.06"
         style="fill:#231f20;fill-opacity:1;fill-rule:nonzero;stroke:none"
         id="path296" />
      <path
         d="m 2430.43,1424 -15.41,-13.07 17.73,7.79 1.75,-3.98 -26.38,-11.6 -1.88,4.28 14.49,12.9 -16.89,-7.43 -1.75,3.97 26.38,11.6 1.96,-4.46"
         style="fill:#231f20;fill-opacity:1;fill-rule:nonzero;stroke:none"
         id="path298" />
      <path
         d="m 2418.6,1394.21 c -1.78,-0.7 -3.53,-0.66 -5.25,0.11 -1.73,0.77 -2.93,2.03 -3.62,3.81 -0.39,1.03 -0.62,1.91 -0.65,2.63 l 4,0.89 0.32,-1.23 0.36,-0.85 1.35,-1.38 1.87,-0.06 20.8,8.09 1.55,-3.97 -20.73,-8.04"
         style="fill:#231f20;fill-opacity:1;fill-rule:nonzero;stroke:none"
         id="path300" />
      <path
         d="m 2437.91,1386.96 1.43,1.25 0.12,1.9 -1.25,1.45 -1.9,0.13 -14.94,-5.05 -1.43,-1.26 -0.12,-1.91 1.25,-1.43 1.9,-0.13 z m 5.68,4.42 c 0.62,-1.81 0.5,-3.57 -0.35,-5.27 -0.85,-1.7 -2.18,-2.86 -3.97,-3.47 l -14.89,-5.04 c -1.82,-0.6 -3.58,-0.48 -5.28,0.36 -1.7,0.85 -2.86,2.17 -3.47,3.97 -0.61,1.82 -0.49,3.58 0.36,5.26 0.85,1.7 2.17,2.86 3.97,3.46 l 14.9,5.04 c 1.81,0.62 3.57,0.5 5.28,-0.35 1.7,-0.85 2.85,-2.17 3.45,-3.96"
         style="fill:#231f20;fill-opacity:1;fill-rule:nonzero;stroke:none"
         id="path302" />
      <path
         d="m 2431.89,1371.62 14.54,10.18 1.3,-4.6 -9.07,-5.92 10.82,-0.24 1.32,-4.63 -17.71,1.04 -11.61,-3.31 -1.19,4.18 11.6,3.3"
         style="fill:#231f20;fill-opacity:1;fill-rule:nonzero;stroke:none"
         id="path304" />
      <path
         d="m 2449.27,1353.85 -1,4.52 4.27,0.94 2.92,-13.24 -4.26,-0.95 -0.99,4.5 -23.86,-5.28 -0.94,4.25 23.86,5.26"
         style="fill:#231f20;fill-opacity:1;fill-rule:nonzero;stroke:none"
         id="path306" />
      <path
         d="m 2440.74,1334.36 -12.03,-2.03 -0.73,4.28 28.4,4.8 0.73,-4.28 -12.06,-2.04 0.87,-5.17 12.06,2.04 0.72,-4.29 -28.4,-4.79 -0.72,4.28 12.03,2.04 -0.87,5.16"
         style="fill:#231f20;fill-opacity:1;fill-rule:nonzero;stroke:none"
         id="path308" />
      <path
         d="m 2430.79,1319.4 28.62,3.42 1.47,-12.29 -4.34,-0.51 -0.95,7.97 -7.81,-0.93 0.7,-5.82 -4.34,-0.52 -0.69,5.82 -7.81,-0.94 0.95,-7.96 -4.33,-0.51 -1.47,12.27"
         style="fill:#231f20;fill-opacity:1;fill-rule:nonzero;stroke:none"
         id="path310" />
      <path
         d="m 2450.12,1297.81 0.1,-1.82 c 0.09,-1.34 0.81,-2.2 2.15,-2.57 l 1.83,-0.15 c 1.19,0.08 2.08,0.43 2.66,1.04 l 0.71,2.14 -0.12,1.82 z m -12.74,-0.8 0.12,-1.82 c 0.09,-1.46 0.91,-2.43 2.46,-2.91 l 1.81,-0.18 c 1.6,0.1 2.75,0.48 3.44,1.14 0.65,0.6 0.93,1.43 0.86,2.49 l -0.11,1.82 z m -4.58,4.4 28.76,1.81 0.41,-6.48 c 0.11,-1.72 -0.24,-3.3 -1.06,-4.73 -0.7,-1.22 -1.82,-2.14 -3.4,-2.75 -0.84,-0.33 -1.85,-0.52 -3.02,-0.6 -1.93,-0.12 -3.5,0.29 -4.73,1.25 l -1.22,1.44 c -0.31,-0.98 -0.98,-1.85 -2.03,-2.59 -0.7,-0.49 -1.63,-0.88 -2.78,-1.17 l -1.98,-0.28 c -1.83,-0.12 -3.39,0.13 -4.7,0.74 -1.03,0.47 -1.87,1.18 -2.53,2.12 -0.74,1.06 -1.15,2.13 -1.22,3.22 l -0.5,8.02"
         style="fill:#231f20;fill-opacity:1;fill-rule:nonzero;stroke:none"
         id="path312" />
      <path
         d="m 2433.81,1283.32 28.82,0.39 0.17,-12.37 -4.37,-0.05 -0.11,8.01 -7.86,-0.1 0.09,-5.86 -4.38,-0.06 -0.08,5.86 -7.86,-0.11 0.12,-8.02 -4.38,-0.06 -0.16,12.37"
         style="fill:#231f20;fill-opacity:1;fill-rule:nonzero;stroke:none"
         id="path314" />
      <path
         d="m 2440.68,1253.71 c -2.01,0.03 -3.71,0.6 -5.09,1.73 -0.94,0.73 -1.6,1.75 -1.95,3.05 -0.19,0.7 -0.27,1.51 -0.24,2.43 0.06,1.69 0.52,3.09 1.39,4.17 0.73,0.92 1.69,1.63 2.9,2.13 1.2,0.51 2.57,0.79 4.11,0.82 l 0.16,-4.15 c -1.69,-0.12 -2.92,-0.52 -3.7,-1.21 l -0.86,-1.76 c 0,-0.95 0.44,-1.72 1.33,-2.32 l 1.9,-0.5 c 1.19,-0.04 2.4,0.46 3.61,1.52 0.84,0.83 2.1,2.08 3.78,3.74 1.44,1.39 2.72,2.37 3.85,2.93 1.26,0.6 2.62,0.88 4.08,0.83 2.61,-0.08 4.58,-1.03 5.87,-2.84 0.78,-1.11 1.14,-2.48 1.08,-4.08 -0.05,-1.55 -0.44,-2.86 -1.16,-3.94 -0.57,-0.84 -1.34,-1.51 -2.32,-2 -0.98,-0.5 -2.11,-0.79 -3.37,-0.85 l -0.61,4.18 c 1.18,0.08 2.11,0.4 2.78,0.92 l 0.77,1.7 -0.99,1.85 -2.1,0.57 c -1.32,0.05 -2.68,-0.47 -4.07,-1.56 l -1.91,-1.87 c -0.88,-0.98 -1.48,-1.63 -1.83,-1.94 -1.11,-1.04 -2.19,-1.83 -3.26,-2.38 l -1.37,-0.62 c -1.04,-0.38 -1.97,-0.56 -2.78,-0.55"
         style="fill:#231f20;fill-opacity:1;fill-rule:nonzero;stroke:none"
         id="path316" />
      <path
         d="m 2457.35,1244.86 0.37,4.61 4.36,-0.35 -1.08,-13.52 -4.36,0.35 0.37,4.58 -24.35,1.95 0.34,4.33 24.35,-1.95"
         style="fill:#231f20;fill-opacity:1;fill-rule:nonzero;stroke:none"
         id="path318" />
      <path
         d="m 2430.99,1227.14 29.23,1.08 -0.63,-4.5 -22.73,-0.45 21.71,-6.74 -0.63,-4.51 -27.78,9.2 0.83,5.92"
         style="fill:#231f20;fill-opacity:1;fill-rule:nonzero;stroke:none"
         id="path320" />
      <path
         d="m 2450.01,1205.47 -10.87,3.65 -0.59,-3.17 z m -14.9,5.07 -6.32,2.25 0.82,4.45 27.43,-10.06 -1.09,-5.87 -29.19,0.49 0.83,4.5 6.69,-0.21 0.83,4.45"
         style="fill:#231f20;fill-opacity:1;fill-rule:nonzero;stroke:none"
         id="path322" />
      <path
         d="m 2424.24,1192.61 c 0.45,1.87 1.47,3.3 3.08,4.29 1.63,1 3.35,1.27 5.2,0.83 l 15.29,-3.65 c 1.87,-0.44 3.29,-1.48 4.29,-3.1 1,-1.62 1.27,-3.36 0.83,-5.2 -0.45,-1.87 -1.48,-3.29 -3.11,-4.27 -1.62,-0.99 -3.35,-1.26 -5.19,-0.82 l -3.2,0.76 1.04,4.39 3.29,-0.78 1.89,0.3 1.13,1.55 -0.31,1.88 -1.56,1.11 -15.33,3.66 -1.88,-0.3 -1.12,-1.54 0.3,-1.89 1.54,-1.12 3.87,-0.92 -1.05,-4.38 -3.9,0.92 c -1.87,0.45 -3.3,1.49 -4.28,3.1 -0.99,1.62 -1.26,3.35 -0.82,5.18"
         style="fill:#231f20;fill-opacity:1;fill-rule:nonzero;stroke:none"
         id="path324" />
      <path
         d="m 2441.56,1169.9 -10.45,4.72 -0.9,-3.09 z m -14.31,6.55 -6.07,2.86 1.27,4.35 26.28,-12.76 -1.68,-5.75 -28.99,3.44 1.28,4.39 6.64,-0.88 1.27,4.35"
         style="fill:#231f20;fill-opacity:1;fill-rule:nonzero;stroke:none"
         id="path326" />
      <path
         d="m 2439.91,1157.04 1.48,4.37 4.14,-1.39 -4.34,-12.85 -4.13,1.39 1.47,4.36 -23.16,7.8 1.39,4.12 23.15,-7.8"
         style="fill:#231f20;fill-opacity:1;fill-rule:nonzero;stroke:none"
         id="path328" />
      <path
         d="m 2411.14,1149.15 1.54,4.06 26.94,-10.19 -1.54,-4.06 -26.94,10.19"
         style="fill:#231f20;fill-opacity:1;fill-rule:nonzero;stroke:none"
         id="path330" />
      <path
         d="m 2426.96,1128.66 1.9,-0.02 1.35,1.34 0.01,1.91 -1.32,1.37 -14.54,6.11 h -1.91 l -1.35,-1.35 -0.02,-1.9 1.34,-1.35 z m 7.19,-0.46 c -0.74,-1.77 -2,-3.01 -3.76,-3.72 -1.77,-0.71 -3.52,-0.69 -5.27,0.04 l -14.49,6.09 c -1.77,0.74 -3,2 -3.72,3.76 -0.71,1.77 -0.7,3.53 0.03,5.28 0.75,1.76 2,2.99 3.76,3.71 1.76,0.7 3.52,0.68 5.27,-0.05 l 14.49,-6.1 c 1.77,-0.75 3.01,-2 3.72,-3.76 0.71,-1.76 0.7,-3.51 -0.03,-5.25"
         style="fill:#231f20;fill-opacity:1;fill-rule:nonzero;stroke:none"
         id="path332" />
      <path
         d="m 2426.92,1112.92 -19.95,3.26 17.44,-8.45 -1.89,-3.9 -25.95,12.55 2.04,4.2 19.21,-2.66 -16.61,8.04 1.9,3.91 25.94,-12.56 -2.13,-4.39"
         style="fill:#231f20;fill-opacity:1;fill-rule:nonzero;stroke:none"
         id="path334" />
      <path
         d="m 2394.43,1097.47 c -1.77,0.95 -3.02,2.22 -3.76,3.86 -0.5,1.08 -0.62,2.28 -0.35,3.6 l 0.89,2.26 c 0.82,1.5 1.87,2.52 3.15,3.1 1.05,0.49 2.23,0.68 3.53,0.59 1.3,-0.1 2.65,-0.48 4.03,-1.14 l -1.72,-3.77 c -1.57,0.66 -2.85,0.85 -3.85,0.6 l -1.57,-1.18 c -0.43,-0.85 -0.4,-1.74 0.13,-2.67 l 1.46,-1.31 c 1.05,-0.57 2.35,-0.67 3.91,-0.29 1.13,0.36 2.82,0.9 5.07,1.62 1.92,0.59 3.5,0.88 4.76,0.87 1.39,-0.04 2.73,-0.41 4.01,-1.11 2.3,-1.26 3.61,-2.99 3.95,-5.19 0.18,-1.35 -0.11,-2.72 -0.89,-4.13 -0.74,-1.36 -1.69,-2.35 -2.82,-2.99 -0.89,-0.49 -1.88,-0.73 -2.98,-0.73 -1.11,0 -2.23,0.26 -3.38,0.77 l 1.35,4.02 c 1.08,-0.47 2.06,-0.62 2.9,-0.45 l 1.45,1.17 -0.05,2.1 -1.61,1.45 c -1.15,0.65 -2.6,0.79 -4.34,0.46 -0.67,-0.13 -1.51,-0.4 -2.54,-0.81 -1.22,-0.48 -2.06,-0.77 -2.51,-0.9 -1.47,-0.42 -2.79,-0.63 -3.99,-0.64 l -1.5,0.08 c -1.11,0.12 -2.01,0.38 -2.73,0.76"
         style="fill:#231f20;fill-opacity:1;fill-rule:nonzero;stroke:none"
         id="path336" />
      <path
         d="m 2205.22,1767.47 h -376.87 v 87.35 h 376.87 v -87.35"
         style="fill:#706d6e;fill-opacity:1;fill-rule:nonzero;stroke:none"
         id="path338" />
      <path
         d="m 2205.22,1854.82 h -376.87 l -56.58,87.35 h 485.37 l -51.92,-87.35"
         style="fill:#514e4f;fill-opacity:1;fill-rule:nonzero;stroke:none"
         id="path340" />
      <path
         d="m 2309.96,2316.51 c -43.97,-65.58 -89.14,-130.2 -152.98,-178.61 -43.99,-33.35 -94.45,-59.64 -144.27,-83.17 -50.61,-23.89 -102.67,-45.22 -156.12,-61.92 -49.9,-15.59 -100.39,-27.37 -151.4,-34.53 13,-10.07 29.25,-16.11 46.97,-16.11 h 515.1 c 42.44,0 76.86,34.41 76.86,76.86 v 233.58 c 0,26.65 -13.56,50.1 -34.16,63.9"
         style="fill:#302d2e;fill-opacity:1;fill-rule:nonzero;stroke:none"
         id="path342" />
      <path
         d="m 2298.96,2077.48 c 0,-50.35 -37.75,-91.16 -84.3,-91.16 h -404.5 c -46.56,0 -84.3,40.81 -84.3,91.16 v 131.16 c 0,50.35 37.74,91.16 84.3,91.16 h 404.5 c 46.55,0 84.3,-40.81 84.3,-91.16 v -131.16"
         style="fill:#484546;fill-opacity:1;fill-rule:nonzero;stroke:none"
         id="path344" />
      <path
         d="m 2266.23,2092.7 c 0,-38.66 -32.84,-70 -73.37,-70 h -352.14 c -40.52,0 -73.39,31.34 -73.39,70 v 100.72 c 0,38.66 32.87,70 73.39,70 h 352.14 c 40.53,0 73.37,-31.34 73.37,-70 V 2092.7"
         style="fill:#66cde2;fill-opacity:1;fill-rule:nonzero;stroke:none"
         id="path346" />
      <path
         d="m 2103.71,2080.4 c -67.25,12.91 -124.85,37.55 -174.89,85.51 -29.51,28.25 -55.31,60.9 -72.46,97.51 h -15.64 c -40.52,0 -73.39,-31.34 -73.39,-70 V 2092.7 c 0,-38.66 32.87,-70 73.39,-70 h 352.14 c 32.64,0 60.26,20.34 69.8,48.45 -52.77,-4.47 -106.73,-0.76 -158.95,9.25"
         style="fill:#54a6b9;fill-opacity:1;fill-rule:nonzero;stroke:none"
         id="path348" />
      <path
         d="m 2365.04,1767.47 h -113.29 v 25.32 h 113.29 v -25.32"
         style="fill:#514e4f;fill-opacity:1;fill-rule:nonzero;stroke:none"
         id="path350" />
      <path
         d="m 2487.39,1767.47 h -113.28 v 25.32 h 113.28 v -25.32"
         style="fill:#514e4f;fill-opacity:1;fill-rule:nonzero;stroke:none"
         id="path352" />
      <path
         d="m 1803.6,1626.93 h -205.17 v 99.11 h 205.17 v -99.11"
         style="fill:#292627;fill-opacity:1;fill-rule:nonzero;stroke:none"
         id="path354" />
      <path
         d="M 1788.56,1639.06 H 1613.1 v 74.84 h 175.46 v -74.84"
         style="fill:#231f20;fill-opacity:1;fill-rule:nonzero;stroke:none"
         id="path356" />
      <path
         d="m 1518.49,909.238 c -73.32,72.942 -117.91,173.232 -153.7,268.782 -77.46,206.83 -91.52,425.81 -93.67,644.36 l -37.83,6.01 c -42.44,0 -76.85,-34.42 -76.85,-76.86 V 789.539 c 0,-42.449 34.41,-76.867 76.85,-76.867 l 249.84,40.457 c 42.47,0 76.86,34.422 76.86,76.859 v 44.492 c -14.67,10.399 -28.59,21.918 -41.5,34.758"
         style="fill:#2c2829;fill-opacity:1;fill-rule:nonzero;stroke:none"
         id="path358" />
    </g>
  </g>
</svg>
